<svg xmlns="http://www.w3.org/2000/svg" viewBox="0 0 784 153" width="195" height="38"><path fill="currentColor" d="M86.965 48.289c2.042 0 3.063-1.074 3.063-3.221v-9.9c0-2.148-1.021-3.222-3.063-3.222h-41.64c-3.631 0-5.446 1.909-5.446 5.726v79.325c0 2.624 1.361 4.056 4.084 4.056h14.75c2.61 0 3.971-1.432 3.971-4.056V90.04c0-2.148.908-3.221 3.064-3.221h19.628c1.816 0 2.837-1.074 2.837-3.46v-8.827c0-2.027-1.021-3.101-2.837-3.101H63.592c-2.042 0-2.95-1.193-2.95-3.46V50.556c0-1.55.68-2.266 2.156-2.266zm55.507 72.764c16.224 0 19.06-7.754 19.06-23.26V52.82c0-16.7-6.58-20.875-23.6-20.875h-15.09c-19.515 0-23.6 4.055-23.6 24.692v41.034c0 19.444 6.581 23.38 23.6 23.38zm.34-23.977c0 6.442-1.362 8.589-6.014 8.589h-8.85c-5.673 0-6.013-3.579-6.013-8.589V57.712c0-7.634.907-10.378 6.013-10.378h8.964c4.651 0 5.9 2.744 5.9 11.452zm95.557-4.055c0-10.497-7.034-14.195-7.034-16.104 0-1.55 3.29-5.13 3.29-11.093v-16.82c0-13.24-3.63-17.058-18.04-17.058h-34.946c-6.24 0-7.829 1.79-7.829 7.993v77.058c0 2.624 1.362 4.056 4.085 4.056h11.233c2.61 0 3.97-1.432 3.97-4.056V89.203c0-1.909.681-2.744 2.156-2.744h12.14c5.106 0 7.149 1.551 7.149 7.873v22.665c0 2.624 1.248 4.055 3.97 4.055h15.885c2.61 0 3.971-1.431 3.971-4.055zM212.5 65.346c0 4.175-1.701 6.203-5.219 6.203h-11.686c-1.702 0-2.496-.835-2.496-2.505V49.601c0-1.67.68-2.505 2.269-2.505h10.098c5.333 0 7.034 1.312 7.034 6.799zm41.551-33.4c-2.723 0-4.084 1.432-4.084 4.295v80.637c0 2.743 1.361 4.175 4.084 4.175h17.587c2.836 0 4.198-1.432 4.198-4.175v-65.25c0-1.909.907-2.982 2.836-2.982h10.665c1.702 0 2.497 1.073 2.497 2.982v65.25c0 2.743 1.361 4.174 4.198 4.174h13.728c2.837 0 4.198-1.431 4.198-4.175v-65.25c0-1.908.908-2.981 2.95-2.981h8.85c2.837 0 4.198 1.55 4.198 4.652v63.58c0 2.743 1.362 4.174 4.198 4.174h11.914c2.836 0 4.084-1.431 4.084-4.175V50.555c0-16.7-6.58-18.609-20.763-18.609zm128.916 0h-15.77c-2.724 0-3.972 1.432-3.972 4.295v80.756c0 2.624 1.248 4.056 3.971 4.056h15.771c2.723 0 4.085-1.432 4.085-4.056V36.241c0-2.863-1.362-4.295-4.085-4.295zm17.27 82.785c0 4.413 1.815 6.322 6.127 6.322h29.953c10.892 0 18.494-4.294 22.806-11.81 2.61-4.77 3.857-10.616 3.857-21.829v-36.62c0-13.718-3.63-18.848-17.7-18.848h-38.916c-4.312 0-6.127 1.909-6.127 6.442zm30.294-9.662h-7.716c-1.475 0-2.155-.955-2.155-2.505V50.435c0-1.55.68-2.386 2.155-2.386h12.368c3.744 0 4.878 1.432 4.878 5.01v34.235c0 7.993-.453 10.617-1.248 12.645-1.475 3.34-4.198 5.129-8.282 5.129zm70.256-52.605c0-3.221 1.135-4.653 4.425-4.653h10.211c2.95 0 3.858 1.67 3.858 4.653v21.232c0 2.267-1.021 3.46-3.063 3.46h-12.255c-2.042 0-3.177-1.193-3.177-3.46zm41.527 36.501c0-4.414-.908-5.845-3.972-8.23-2.269-1.91-3.403-2.983-3.403-5.369V44.471c0-9.185-2.61-12.525-11.687-12.525h-32.11c-8.282 0-12.366 3.34-12.366 12.525v29.583c0 2.385-.908 3.578-2.837 5.368-2.836 2.624-3.404 3.817-3.404 8.35v28.986c0 2.863 1.135 4.294 3.631 4.294h16.111c2.27 0 3.29-1.431 3.29-4.294V95.287c0-2.148.908-3.102 2.724-3.102h21.898c1.815 0 2.723.954 2.723 3.102v21.471c0 2.863 1.134 4.294 3.404 4.294h12.594c2.269 0 3.404-1.431 3.404-4.294zm63.561 32.088c11.12 0 13.73-5.13 13.73-15.388V92.066c0-6.799-.908-9.542-4.312-13.121-3.177-3.34-3.858-4.652-3.858-5.845 0-2.386 3.177-4.414 3.177-10.616V46.499c0-11.213-4.311-14.553-17.246-14.553h-35.4c-6.24 0-7.828 1.79-7.828 7.993v73.36c0 5.965 1.588 7.754 7.828 7.754zm-10.779-20.279c0 3.698-1.247 5.13-4.878 5.13h-13.615c-1.589 0-2.383-.716-2.383-2.386v-18.25c0-1.91.794-2.744 2.27-2.744h12.14c4.425 0 6.467 2.027 6.467 6.322zm-2.041-38.171c0 3.817-2.043 5.964-5.22 5.964H576.83c-1.702 0-2.61-.954-2.61-2.624V49.48c0-1.67.794-2.505 2.383-2.505h11.346c3.404 0 5.106 1.313 5.106 5.01zm60.044-26.362c0-2.863-1.361-4.295-3.97-4.295h-14.524c-2.723 0-4.084 1.432-4.084 4.295v72.883c0 7.992 3.97 11.929 11.573 11.929h35.853c2.043 0 2.95-1.193 2.95-3.579v-9.423c0-2.147-.907-3.102-2.95-3.102h-22.125c-1.815 0-2.723-1.073-2.723-2.982zm86.254 47.356c1.816-.238 2.724-1.312 2.724-3.34v-8.946c0-2.028-.908-3.102-2.837-3.102h-24.28c-1.475 0-2.156-.835-2.156-2.505v-15.03c0-1.55.68-2.266 2.156-2.266h25.074c2.043 0 3.064-1.074 3.064-3.22v-10.02c0-2.148-1.021-3.222-3.064-3.222h-44.022c-4.198 0-6.354 2.267-6.354 6.561v74.434c0 5.488 2.836 8.112 8.283 8.112h43.001c2.156 0 3.177-1.193 3.177-3.579v-9.662c0-2.028-.908-3.101-2.95-3.101h-25.982c-1.475 0-2.383-.835-2.383-2.505V86.817c0-2.147 1.021-3.22 2.836-3.22z" aria-label="formidable"/></svg>