<?xml version="1.0" encoding="UTF-8" standalone="no"?>
<!-- Created with Inkscape (http://www.inkscape.org/) -->

<svg
   width="68mm"
   height="12mm"
   viewBox="0 0 68.000001 12"
   version="1.1"
   id="svg1"
   xmlns="http://www.w3.org/2000/svg"
   xmlns:svg="http://www.w3.org/2000/svg">
  <defs
     id="defs1">
    <rect
       x="72.755905"
       y="288.94489"
       width="630.89764"
       height="149.6693"
       id="rect1" />
    <rect
       x="72.755905"
       y="288.94489"
       width="630.89764"
       height="149.6693"
       id="rect4" />
    <rect
       x="72.755905"
       y="288.94489"
       width="630.89764"
       height="149.6693"
       id="rect6" />
    <rect
       x="72.755905"
       y="288.94489"
       width="630.89764"
       height="149.6693"
       id="rect8" />
    <rect
       x="72.755905"
       y="288.94489"
       width="630.89764"
       height="149.6693"
       id="rect9" />
    <rect
       x="72.755905"
       y="288.94489"
       width="630.89764"
       height="149.6693"
       id="rect9-3" />
    <rect
       x="72.755905"
       y="288.94489"
       width="630.89764"
       height="149.6693"
       id="rect4-6" />
  </defs>
  <g
     id="layer1"
     transform="translate(-46.588782,-56.633006)">
    <path
       style="font-weight:900;font-size:74.6667px;line-height:1.4em;font-family:Inter;-inkscape-font-specification:'Inter Heavy';white-space:pre;fill:#ffffff;stroke:#ffffff;stroke-width:1.59182"
       d="m 61.175173,67.208297 v -6.483053 h 2.262315 v 1.232454 h 0.06753 q 0.177271,-0.683758 0.561358,-1.000314 0.388308,-0.316556 0.907459,-0.316556 0.151947,0 0.299672,0.02532 0.151946,0.02111 0.29123,0.06331 v 1.987967 q -0.17305,-0.05909 -0.426294,-0.08863 -0.253244,-0.02955 -0.434736,-0.02955 -0.341879,0 -0.616227,0.156167 -0.270128,0.151947 -0.426295,0.430516 -0.156167,0.274347 -0.156167,0.645773 v 3.37659 z m 5.149304,0 v -6.483053 h 2.329847 v 6.483053 z M 67.4894,60.049925 q -0.472722,0 -0.810382,-0.312334 -0.337658,-0.312334 -0.337658,-0.751291 0,-0.438958 0.337658,-0.751292 0.33766,-0.312334 0.810382,-0.312334 0.476944,0 0.810383,0.312334 0.337658,0.312334 0.337658,0.751292 0,0.438957 -0.337658,0.751291 -0.333439,0.312334 -0.810383,0.312334 z m 6.212921,0.675319 v 1.688294 h -4.271388 v -1.688294 z m -3.444123,-1.553231 h 2.329847 v 5.951239 q 0,0.135063 0.04643,0.22792 0.04643,0.08863 0.143506,0.135063 0.09708,0.04221 0.249023,0.04221 0.105518,0 0.244803,-0.02532 0.143504,-0.02532 0.211037,-0.04221 l 0.337658,1.637646 q -0.156167,0.04643 -0.447398,0.11396 -0.28701,0.06753 -0.683759,0.08863 -0.80194,0.04221 -1.346415,-0.164608 Q 70.798454,66.925506 70.524107,66.473887 70.249758,66.022269 70.2582,65.34273 Z m 7.42849,8.154464 q -1.038301,0 -1.789593,-0.396749 -0.74707,-0.40097 -1.152261,-1.148041 -0.40097,-0.751292 -0.40097,-1.798035 0,-1.004535 0.405191,-1.755827 0.40519,-0.75129 1.14382,-1.169144 0.738629,-0.417853 1.743165,-0.417853 0.734408,0 1.329532,0.22792 0.595123,0.22792 1.017197,0.662656 0.422075,0.430516 0.649993,1.046743 0.22792,0.616228 0.22792,1.388622 v 0.540255 h -5.790851 v -1.283105 h 3.646717 q -0.0042,-0.278568 -0.143506,-0.489605 -0.135062,-0.215257 -0.367202,-0.333437 -0.22792,-0.122402 -0.519152,-0.122402 -0.28279,0 -0.51915,0.122402 -0.236361,0.11818 -0.379867,0.329217 -0.139284,0.211037 -0.147726,0.493825 v 1.384403 q 0,0.312335 0.130843,0.557137 0.130843,0.244803 0.375646,0.384088 0.244803,0.139284 0.590903,0.139284 0.240583,0 0.438957,-0.06753 0.202596,-0.06753 0.3461,-0.194155 0.143506,-0.130843 0.211037,-0.312334 h 2.127251 q -0.109738,0.675317 -0.51915,1.173364 -0.409411,0.493827 -1.08473,0.768174 -0.671097,0.270128 -1.570114,0.270128 z m 6.331101,-0.11818 h -2.532443 l 2.853218,-8.644072 h 3.20776 l 2.853219,8.644072 H 87.867102 L 85.97621,60.944722 h -0.06753 z m -0.472723,-3.410356 h 4.760991 v 1.755826 h -4.760991 z m 11.007676,3.410356 h -3.325941 v -8.644072 h 3.292175 q 1.333753,0 2.304523,0.519152 0.97499,0.51493 1.502583,1.4857 0.531813,0.966548 0.531813,2.317184 0,1.350636 -0.527593,2.321406 -0.527591,0.966548 -1.494141,1.4857 -0.966549,0.51493 -2.283419,0.51493 z m -0.979211,-1.992189 h 0.894797 q 0.641551,0 1.09317,-0.206816 0.45584,-0.206815 0.692201,-0.713304 0.240582,-0.506488 0.240582,-1.409727 0,-0.903237 -0.244802,-1.409726 -0.240583,-0.506488 -0.709084,-0.713305 -0.464281,-0.206816 -1.1396,-0.206816 h -0.827264 z m 9.521979,2.110369 q -1.05518,0 -1.80648,-0.417853 -0.75129,-0.422073 -1.15226,-1.173364 -0.400967,-0.755513 -0.400967,-1.751608 0,-0.996094 0.400967,-1.747384 0.40097,-0.755513 1.15226,-1.173366 0.7513,-0.422074 1.80648,-0.422074 1.05518,0 1.80648,0.422074 0.75129,0.417853 1.15226,1.173366 0.40097,0.75129 0.40097,1.747384 0,0.996095 -0.40097,1.751608 -0.40097,0.751291 -1.15226,1.173364 -0.7513,0.417853 -1.80648,0.417853 z m 0.0169,-1.72206 q 0.29545,0 0.51071,-0.198376 0.21526,-0.198374 0.33344,-0.565579 0.11818,-0.367204 0.11818,-0.873693 0,-0.510708 -0.11818,-0.873692 -0.11818,-0.367205 -0.33344,-0.565579 -0.21526,-0.198374 -0.51071,-0.198374 -0.31233,0 -0.53603,0.198374 -0.2237,0.198374 -0.34188,0.565579 -0.11818,0.362984 -0.11818,0.873692 0,0.506489 0.11818,0.873693 0.11818,0.367205 0.34188,0.565579 0.2237,0.198376 0.53603,0.198376 z m 7.41162,1.72206 q -1.05519,0 -1.80648,-0.417853 -0.75129,-0.422073 -1.15226,-1.173364 -0.40097,-0.755513 -0.40097,-1.751608 0,-0.996094 0.40097,-1.747384 0.40097,-0.755513 1.15226,-1.173366 0.75129,-0.422074 1.80648,-0.422074 0.95388,0 1.65031,0.346102 0.70064,0.341878 1.08473,0.970768 0.38408,0.62467 0.3883,1.468817 h -2.16101 q -0.0464,-0.510708 -0.29546,-0.776615 -0.2448,-0.270128 -0.63311,-0.270128 -0.30389,0 -0.53181,0.177272 -0.22792,0.17305 -0.35454,0.527591 -0.12662,0.350322 -0.12662,0.882134 0,0.531813 0.12662,0.886356 0.12662,0.350322 0.35454,0.527592 0.22792,0.17305 0.53181,0.17305 0.25747,0 0.45584,-0.11818 0.19838,-0.122402 0.32078,-0.354542 0.12662,-0.236361 0.15195,-0.574021 h 2.16101 q -0.0127,0.85681 -0.39252,1.494141 -0.37987,0.633112 -1.07629,0.979212 -0.6922,0.3461 -1.65453,0.3461 z"
       id="text6"
       aria-label="riteADoc" />
    <path
       style="font-weight:900;font-size:74.6667px;line-height:1.4em;font-family:Inter;-inkscape-font-specification:'Inter Heavy';white-space:pre;fill:#ffffff;stroke:#ffffff;stroke-width:1.59182"
       d="M 50.336317,67.343342 47.786992,58.69927 h 2.616857 l 1.181807,5.31813 h 0.06753 l 1.401284,-5.31813 h 2.05972 l 1.401286,5.335013 h 0.06753 l 1.181807,-5.335013 h 2.616857 l -2.549325,8.644072 h -2.245433 l -1.468817,-4.828525 h -0.06753 l -1.468817,4.828525 z"
       id="text8"
       aria-label="W" />
    <path
       style="font-weight:900;font-size:74.6667px;line-height:1.4em;font-family:Inter;-inkscape-font-specification:'Inter Heavy';white-space:pre;fill:#1a1a1a;stroke:#000000;stroke-width:0.159182"
       d="m 61.254764,67.128705 v -6.483052 h 2.262315 v 1.232454 h 0.06753 q 0.177271,-0.683759 0.561358,-1.000314 0.388308,-0.316556 0.907459,-0.316556 0.151947,0 0.299672,0.02532 0.151946,0.0211 0.29123,0.06331 v 1.987967 q -0.17305,-0.05909 -0.426294,-0.08863 -0.253244,-0.02955 -0.434736,-0.02955 -0.341879,0 -0.616227,0.156167 -0.270128,0.151947 -0.426295,0.430516 -0.156167,0.274347 -0.156167,0.645772 v 3.37659 z m 5.149304,0 v -6.483052 h 2.329847 v 6.483052 z m 1.164923,-7.158371 q -0.472722,0 -0.810382,-0.312334 -0.337658,-0.312334 -0.337658,-0.751292 0,-0.438957 0.337658,-0.751291 0.33766,-0.312334 0.810382,-0.312334 0.476944,0 0.810383,0.312334 0.337658,0.312334 0.337658,0.751291 0,0.438958 -0.337658,0.751292 -0.333439,0.312334 -0.810383,0.312334 z m 6.212921,0.675319 v 1.688294 h -4.271388 v -1.688294 z m -3.444123,-1.553232 h 2.329847 v 5.95124 q 0,0.135063 0.04643,0.22792 0.04643,0.08863 0.143506,0.135063 0.09708,0.04221 0.249023,0.04221 0.105518,0 0.244803,-0.02532 0.143504,-0.02532 0.211037,-0.04221 l 0.337658,1.637645 q -0.156167,0.04643 -0.447398,0.11396 -0.28701,0.06753 -0.683759,0.08864 -0.80194,0.04221 -1.346415,-0.164608 -0.544476,-0.211038 -0.818823,-0.662656 -0.274349,-0.451619 -0.265907,-1.131157 z m 7.42849,8.154464 q -1.038301,0 -1.789593,-0.396748 -0.74707,-0.40097 -1.152261,-1.148042 -0.40097,-0.751291 -0.40097,-1.798034 0,-1.004536 0.405191,-1.755827 0.40519,-0.75129 1.14382,-1.169144 0.738629,-0.417853 1.743165,-0.417853 0.734408,0 1.329532,0.22792 0.595123,0.22792 1.017197,0.662656 0.422075,0.430515 0.649993,1.046742 0.22792,0.616229 0.22792,1.388623 v 0.540255 h -5.790851 v -1.283105 h 3.646717 q -0.0042,-0.278568 -0.143506,-0.489605 -0.135062,-0.215258 -0.367202,-0.333437 -0.22792,-0.122402 -0.519152,-0.122402 -0.28279,0 -0.51915,0.122402 -0.236361,0.118179 -0.379867,0.329217 -0.139284,0.211037 -0.147726,0.493825 v 1.384403 q 0,0.312334 0.130843,0.557137 0.130843,0.244803 0.375646,0.384087 0.244803,0.139285 0.590903,0.139285 0.240583,0 0.438957,-0.06753 0.202596,-0.06753 0.3461,-0.194154 0.143506,-0.130843 0.211037,-0.312334 h 2.127251 q -0.109738,0.675317 -0.51915,1.173364 -0.409411,0.493827 -1.08473,0.768174 -0.671097,0.270127 -1.570114,0.270127 z m 6.331101,-0.11818 h -2.532443 l 2.853218,-8.644071 h 3.20776 l 2.853219,8.644071 H 87.946693 L 86.055801,60.865131 H 85.98827 Z M 83.624657,63.71835 h 4.760991 v 1.755825 h -4.760991 z m 11.007676,3.410355 h -3.325941 v -8.644071 h 3.292175 q 1.333753,0 2.304523,0.519152 0.97499,0.51493 1.502583,1.4857 0.531813,0.966548 0.531813,2.317184 0,1.350635 -0.527593,2.321405 -0.527591,0.966549 -1.494141,1.4857 -0.966549,0.51493 -2.283419,0.51493 z m -0.979211,-1.992188 h 0.894797 q 0.641551,0 1.09317,-0.206816 0.45584,-0.206815 0.692201,-0.713304 0.240582,-0.506489 0.240582,-1.409727 0,-0.903237 -0.244802,-1.409726 -0.240583,-0.506488 -0.709084,-0.713306 -0.464281,-0.206815 -1.1396,-0.206815 h -0.827264 z m 9.521978,2.110368 q -1.05518,0 -1.80647,-0.417852 -0.7513,-0.422073 -1.15227,-1.173365 -0.400966,-0.755513 -0.400966,-1.751607 0,-0.996094 0.400966,-1.747384 0.40097,-0.755513 1.15227,-1.173366 0.75129,-0.422074 1.80647,-0.422074 1.05519,0 1.80648,0.422074 0.75129,0.417853 1.15226,1.173366 0.40097,0.75129 0.40097,1.747384 0,0.996094 -0.40097,1.751607 -0.40097,0.751292 -1.15226,1.173365 -0.75129,0.417852 -1.80648,0.417852 z m 0.0169,-1.72206 q 0.29546,0 0.51071,-0.198375 0.21526,-0.198375 0.33344,-0.565579 0.11818,-0.367204 0.11818,-0.873693 0,-0.510708 -0.11818,-0.873693 -0.11818,-0.367204 -0.33344,-0.565578 -0.21525,-0.198374 -0.51071,-0.198374 -0.31233,0 -0.53603,0.198374 -0.2237,0.198374 -0.34188,0.565578 -0.11818,0.362985 -0.11818,0.873693 0,0.506489 0.11818,0.873693 0.11818,0.367204 0.34188,0.565579 0.2237,0.198375 0.53603,0.198375 z m 7.41162,1.72206 q -1.05519,0 -1.80648,-0.417852 -0.75129,-0.422073 -1.15226,-1.173365 -0.40097,-0.755513 -0.40097,-1.751607 0,-0.996094 0.40097,-1.747384 0.40097,-0.755513 1.15226,-1.173366 0.75129,-0.422074 1.80648,-0.422074 0.95388,0 1.65031,0.346101 0.70064,0.341879 1.08473,0.970769 0.38408,0.62467 0.38831,1.468817 h -2.16102 q -0.0464,-0.510708 -0.29545,-0.776616 -0.24481,-0.270127 -0.63311,-0.270127 -0.3039,0 -0.53182,0.177272 -0.22792,0.17305 -0.35454,0.527591 -0.12662,0.350321 -0.12662,0.882134 0,0.531813 0.12662,0.886356 0.12662,0.350321 0.35454,0.527591 0.22792,0.17305 0.53182,0.17305 0.25746,0 0.45583,-0.11818 0.19838,-0.122401 0.32078,-0.354541 0.12662,-0.236361 0.15195,-0.574021 h 2.16102 q -0.0127,0.85681 -0.39253,1.494141 -0.37987,0.633111 -1.07629,0.979211 -0.6922,0.3461 -1.65453,0.3461 z"
       id="text1"
       aria-label="riteADoc" />
    <path
       style="font-weight:900;font-size:74.6667px;line-height:1.4em;font-family:Inter;-inkscape-font-specification:'Inter Heavy';white-space:pre;fill:#4995f7;stroke:#4995f7;stroke-width:0.477546"
       d="m 50.415908,67.26375 -2.549325,-8.644071 h 2.616857 l 1.181807,5.31813 h 0.06753 l 1.401284,-5.31813 h 2.05972 l 1.401286,5.335013 h 0.06753 l 1.181807,-5.335013 h 2.616857 l -2.549325,8.644071 h -2.245433 l -1.468817,-4.828524 h -0.06753 L 52.66134,67.26375 Z"
       id="text4"
       aria-label="W" />
  </g>
</svg>
