<svg xmlns="http://www.w3.org/2000/svg" xml:space="preserve" width="234" height="100"><rect width="96" height="96" x="2" y="2" fill="#666" rx="7" ry="7"/><rect width="42" height="34" x="48" y="12" fill="#f9f9f9" rx="0" ry="0"/><rect width="34" height="82" x="8" y="8" fill="#b3b3b3" rx="4" ry="4"/><path d="M167.141 12.457v47.035c0 8.59-2.561 15.413-7.685 20.468-5.089 5.055-12.3 7.583-21.636 7.583-4.702 0-8.773-.601-12.212-1.803-3.405-1.237-6.686-2.934-9.844-5.09l6.58-10.712c2.492 1.732 4.825 2.952 7.001 3.659 2.176.671 4.65 1.007 7.423 1.007 3.755 0 6.878-1.202 9.37-3.606 2.526-2.439 3.79-6.204 3.79-11.294v-34.52h-22.425V12.457zM190 87.543h-18.003l19.161-29.589-17.371-26.725h18.634l8.95 18.029 8.633-18.03h17.687l-16.807 26.09 19.267 30.225h-18.846L200.25 66.49Z"/></svg>