<svg width="234" height="100" viewBox="0 0 234 100" version="1.1" xml:space="preserve" xmlns="http://www.w3.org/2000/svg" xmlns:svg="http://www.w3.org/2000/svg">
  <!-- Copyright (c) Juan-Pablo Scaletti [juanpablo@jpscaletti.com] -->
  <rect x="2" y="2" width="96" height="96" fill="#666" ry="7" rx="7" />
  <rect x="48" y="12" width="42" height="34" fill="#f9f9f9" rx="0" ry="0" />
  <rect x="8" y="8" width="34" height="82" rx="4" ry="4" fill="#b3b3b3" />
  <path d="m 167.14138,12.457278 v 47.034464 c 0,8.590293 -2.56188,15.413022 -7.6856,20.468226 -5.08862,5.055182 -12.30046,7.582772 -21.63547,7.582772 -4.70259,0 -8.77351,-0.60096 -12.21271,-1.8029 -3.40413,-1.23728 -6.68542,-2.93412 -9.84388,-5.09055 l 6.58013,-10.711329 c 2.49166,1.732194 4.82542,2.951787 7.00126,3.658819 2.17583,0.671672 4.64995,1.007513 7.42239,1.007513 3.75506,0 6.87843,-1.201923 9.3701,-3.60581 2.52677,-2.439206 3.79016,-6.204097 3.79016,-11.29463 V 25.183628 h -22.42509 v -12.72635 z" />
  <path d="m 190,87.542738 h -18.00323 l 19.16133,-29.58876 -17.37153,-26.725323 h 18.63492 l 8.94899,18.028989 8.63313,-18.028989 h 17.6874 L 210.88398,57.317676 230.1506,87.542738 H 211.3051 L 200.25047,66.491241 Z" />
</svg>
