<svg xmlns="http://www.w3.org/2000/svg" width="784" height="153"><path d="M215.727 99.415c3.456 0 5.184-1.728 5.184-5.184V78.295c0-3.456-1.728-5.184-5.184-5.184h-70.464c-6.144 0-9.216 3.072-9.216 9.216v127.68c0 4.224 2.304 6.528 6.912 6.528h24.96c4.416 0 6.72-2.304 6.72-6.528v-43.392c0-3.456 1.536-5.184 5.184-5.184h33.216c3.072 0 4.8-1.728 4.8-5.568v-14.208c0-3.264-1.728-4.992-4.8-4.992h-36.864c-3.456 0-4.992-1.92-4.992-5.568v-28.032c0-2.496 1.152-3.648 3.648-3.648zm93.93 117.12c27.455 0 32.255-12.48 32.255-37.44V106.71c0-26.88-11.136-33.6-39.936-33.6H276.44c-33.024 0-39.936 6.528-39.936 39.744v66.048c0 31.296 11.136 37.632 39.936 37.632zm.575-38.592c0 10.368-2.304 13.824-10.176 13.824H285.08c-9.6 0-10.176-5.76-10.176-13.824v-63.36c0-12.288 1.536-16.704 10.176-16.704h15.168c7.872 0 9.984 4.416 9.984 18.432zm161.705-6.528c0-16.896-11.904-22.848-11.904-25.92 0-2.496 5.568-8.256 5.568-17.856v-27.072c0-21.312-6.144-27.456-30.528-27.456h-59.136c-10.56 0-13.248 2.88-13.248 12.864v124.032c0 4.224 2.304 6.528 6.912 6.528h19.008c4.416 0 6.72-2.304 6.72-6.528V165.27c0-3.072 1.152-4.416 3.648-4.416h20.544c8.64 0 12.096 2.496 12.096 12.672v36.48c0 4.224 2.112 6.528 6.72 6.528h26.88c4.416 0 6.72-2.304 6.72-6.528zm-43.776-44.544c0 6.72-2.88 9.984-8.832 9.984h-19.776c-2.88 0-4.224-1.344-4.224-4.032v-31.296c0-2.688 1.152-4.032 3.84-4.032h17.088c9.024 0 11.904 2.112 11.904 10.944zm70.313-53.76c-4.608 0-6.912 2.304-6.912 6.912v129.792c0 4.416 2.304 6.72 6.912 6.72h29.76c4.8 0 7.104-2.304 7.104-6.72V104.79c0-3.072 1.536-4.8 4.8-4.8h18.048c2.88 0 4.224 1.728 4.224 4.8v105.024c0 4.416 2.304 6.72 7.104 6.72h23.232c4.8 0 7.104-2.304 7.104-6.72V104.79c0-3.072 1.536-4.8 4.992-4.8h14.976c4.8 0 7.104 2.496 7.104 7.488v102.336c0 4.416 2.304 6.72 7.104 6.72h20.16c4.8 0 6.912-2.304 6.912-6.72V103.063c0-26.88-11.136-29.952-35.136-29.952zm218.153 0H689.94c-4.608 0-6.72 2.304-6.72 6.912v129.984c0 4.224 2.112 6.528 6.72 6.528h26.688c4.608 0 6.912-2.304 6.912-6.528V80.023c0-4.608-2.304-6.912-6.912-6.912zm29.225 133.248c0 7.104 3.072 10.176 10.368 10.176h50.688c18.432 0 31.296-6.912 38.592-19.008 4.416-7.68 6.528-17.088 6.528-35.136v-58.944c0-22.08-6.144-30.336-29.952-30.336H756.22c-7.296 0-10.368 3.072-10.368 10.368zm51.264-15.552H784.06c-2.496 0-3.648-1.536-3.648-4.032V102.87c0-2.496 1.152-3.84 3.648-3.84h20.928c6.336 0 8.256 2.304 8.256 8.064v55.104c0 12.864-.768 17.088-2.112 20.352-2.496 5.376-7.104 8.256-14.016 8.256zm118.889-84.672c0-5.184 1.92-7.488 7.488-7.488h17.28c4.992 0 6.528 2.688 6.528 7.488v34.176c0 3.648-1.728 5.568-5.184 5.568H921.38c-3.456 0-5.376-1.92-5.376-5.568zm70.272 58.752c0-7.104-1.536-9.408-6.72-13.248-3.84-3.072-5.76-4.8-5.76-8.64V93.27c0-14.784-4.416-20.16-19.776-20.16h-54.336c-14.016 0-20.928 5.376-20.928 20.16v47.616c0 3.84-1.536 5.76-4.8 8.64-4.8 4.224-5.76 6.144-5.76 13.44v46.656c0 4.608 1.92 6.912 6.144 6.912h27.264c3.84 0 5.568-2.304 5.568-6.912v-34.56c0-3.456 1.536-4.992 4.608-4.992h37.056c3.072 0 4.608 1.536 4.608 4.992v34.56c0 4.608 1.92 6.912 5.76 6.912h21.312c3.84 0 5.76-2.304 5.76-6.912zm107.56 51.648c18.817 0 23.233-8.256 23.233-24.768v-21.888c0-10.944-1.536-15.36-7.296-21.12-5.376-5.376-6.528-7.488-6.528-9.408 0-3.84 5.376-7.104 5.376-17.088V96.535c0-18.048-7.296-23.424-29.184-23.424h-59.904c-10.56 0-13.248 2.88-13.248 12.864v118.08c0 9.6 2.688 12.48 13.248 12.48zm-18.24-32.64c0 5.952-2.111 8.256-8.255 8.256h-23.04c-2.688 0-4.032-1.152-4.032-3.84v-29.376c0-3.072 1.344-4.416 3.84-4.416h20.544c7.488 0 10.944 3.264 10.944 10.176zm-3.455-61.44c0 6.144-3.456 9.6-8.832 9.6h-18.624c-2.88 0-4.416-1.536-4.416-4.224v-26.496c0-2.688 1.344-4.032 4.032-4.032h19.2c5.76 0 8.64 2.112 8.64 8.064zm101.609-42.432c0-4.608-2.304-6.912-6.72-6.912h-24.576c-4.608 0-6.912 2.304-6.912 6.912v117.312c0 12.864 6.72 19.2 19.584 19.2h60.672c3.456 0 4.992-1.92 4.992-5.76v-15.168c0-3.456-1.536-4.992-4.992-4.992h-37.44c-3.072 0-4.608-1.728-4.608-4.8zm145.96 76.224c3.073-.384 4.609-2.112 4.609-5.376v-14.4c0-3.264-1.536-4.992-4.8-4.992h-41.088c-2.496 0-3.648-1.344-3.648-4.032v-24.192c0-2.496 1.152-3.648 3.648-3.648h42.432c3.456 0 5.184-1.728 5.184-5.184V78.295c0-3.456-1.728-5.184-5.184-5.184h-74.496c-7.104 0-10.752 3.648-10.752 10.56v119.808c0 8.832 4.8 13.056 14.016 13.056h72.768c3.648 0 5.376-1.92 5.376-5.76v-15.552c0-3.264-1.536-4.992-4.992-4.992h-43.968c-2.496 0-4.032-1.344-4.032-4.032V161.43c0-3.456 1.728-5.184 4.8-5.184z" aria-label="formidable" style="font-size:192px;line-height:1em;font-family:Wheaton;-inkscape-font-specification:Wheaton;letter-spacing:-4.95113px;word-spacing:3.30075px;white-space:pre;fill:#212121;stroke-width:4" transform="matrix(.59094 0 0 .62128 -40.517 -13.476)"/></svg>