<?xml version="1.0" encoding="UTF-8" standalone="no"?>
<!-- Created with Inkscape (http://www.inkscape.org/) -->

<svg
   width="512"
   height="512"
   version="1.1"
   viewBox="0 0 512 512"
   id="svg2"
   sodipodi:docname="mask-icon.svg"
   inkscape:version="1.4.2 (ebf0e940d0, 2025-05-08)"
   inkscape:export-filename="apple-touch-icon.png"
   inkscape:export-xdpi="36.75"
   inkscape:export-ydpi="36.75"
   xmlns:inkscape="http://www.inkscape.org/namespaces/inkscape"
   xmlns:sodipodi="http://sodipodi.sourceforge.net/DTD/sodipodi-0.dtd"
   xmlns="http://www.w3.org/2000/svg"
   xmlns:svg="http://www.w3.org/2000/svg">
  <defs
     id="defs2" />
  <sodipodi:namedview
     id="namedview2"
     pagecolor="#ffffff"
     bordercolor="#000000"
     borderopacity="0.25"
     inkscape:showpageshadow="2"
     inkscape:pageopacity="0.0"
     inkscape:pagecheckerboard="true"
     inkscape:deskcolor="#d1d1d1"
     inkscape:zoom="2.2714844"
     inkscape:cx="256.44024"
     inkscape:cy="249.39639"
     inkscape:window-width="2560"
     inkscape:window-height="1371"
     inkscape:window-x="0"
     inkscape:window-y="0"
     inkscape:window-maximized="1"
     inkscape:current-layer="svg2"
     showguides="false" />
  <path
     id="rect1"
     style="font-variation-settings:'wght' 900;fill:#000000;fill-opacity:1"
     d="M 20.693359 0 C 9.2288832 0 0 9.9750245 0 22.365234 L 0 489.63477 C 0 502.02498 9.2288832 512 20.693359 512 L 491.30664 512 C 502.77112 512 512 502.02498 512 489.63477 L 512 22.365234 C 512 9.9750245 502.77112 0 491.30664 0 L 20.693359 0 z M 25.644531 30.611328 L 121.36914 30.611328 L 164.59766 225.14648 L 167.06836 225.14648 L 218.32812 30.611328 L 293.67188 30.611328 L 344.93164 225.76562 L 347.40039 225.76562 L 390.63086 30.611328 L 486.35547 30.611328 L 393.10156 346.81055 L 310.96484 346.81055 L 257.23438 170.18359 L 254.76562 170.18359 L 201.03516 346.81055 L 118.89844 346.81055 L 25.644531 30.611328 z " />
</svg>
