<?xml version="1.0" encoding="UTF-8" standalone="no"?>
<!-- Created with Inkscape (http://www.inkscape.org/) -->

<svg
   width="1200mm"
   height="630mm"
   viewBox="0 0 1200 630"
   version="1.1"
   id="svg1"
   xml:space="preserve"
   inkscape:version="1.4.2 (ebf0e940d0, 2025-05-08)"
   sodipodi:docname="opengraph.svg"
   inkscape:export-filename="opengraph.png"
   inkscape:export-xdpi="25.4"
   inkscape:export-ydpi="25.4"
   xmlns:inkscape="http://www.inkscape.org/namespaces/inkscape"
   xmlns:sodipodi="http://sodipodi.sourceforge.net/DTD/sodipodi-0.dtd"
   xmlns:xlink="http://www.w3.org/1999/xlink"
   xmlns="http://www.w3.org/2000/svg"
   xmlns:svg="http://www.w3.org/2000/svg"><sodipodi:namedview
     id="namedview1"
     pagecolor="#ffffff"
     bordercolor="#000000"
     borderopacity="0.25"
     inkscape:showpageshadow="2"
     inkscape:pageopacity="0.0"
     inkscape:pagecheckerboard="0"
     inkscape:deskcolor="#d1d1d1"
     inkscape:document-units="mm"
     inkscape:zoom="0.2590155"
     inkscape:cx="1882.1267"
     inkscape:cy="1218.0738"
     inkscape:window-width="2560"
     inkscape:window-height="1371"
     inkscape:window-x="0"
     inkscape:window-y="0"
     inkscape:window-maximized="1"
     inkscape:current-layer="layer1" /><defs
     id="defs1"><linearGradient
       id="linearGradient1"
       inkscape:collect="always"><stop
         style="stop-color:#3f92e9;stop-opacity:1;"
         offset="0"
         id="stop1" /><stop
         style="stop-color:#2964a1;stop-opacity:1;"
         offset="1"
         id="stop2" /></linearGradient><rect
       x="999.94015"
       y="830.06615"
       width="2671.6548"
       height="741.26837"
       id="rect2" /><rect
       x="999.94015"
       y="830.06615"
       width="2671.6548"
       height="741.26837"
       id="rect5" /><linearGradient
       inkscape:collect="always"
       xlink:href="#linearGradient1"
       id="linearGradient2"
       x1="0"
       y1="315"
       x2="1200"
       y2="315"
       gradientUnits="userSpaceOnUse" /></defs><g
     inkscape:label="Layer 1"
     inkscape:groupmode="layer"
     id="layer1"><rect
       style="fill:url(#linearGradient2);stroke-width:6.00001;stroke-linejoin:bevel"
       id="rect1"
       width="1200"
       height="630"
       x="-4.4408921e-16"
       y="0" /><path
       style="font-size:368.764px;font-family:'Inter V';-inkscape-font-specification:'Inter V, @wght=900';font-variation-settings:'wght' 900;white-space:pre;fill:#ffffff;stroke:#ffffff;stroke-width:8.74757;stroke-linejoin:bevel"
       d="m 1085.3209,1174.6502 -79.0957,-268.19203 h 81.1909 l 36.6669,165.00093 h 2.0953 l 43.4764,-165.00093 h 63.9051 l 43.4765,165.52473 h 2.0952 l 36.6669,-165.52473 h 81.1909 l -79.0957,268.19203 h -69.667 l -45.5717,-149.8104 h -2.0953 l -45.5716,149.8104 z m 368.7638,3.1428 q -19.2501,0 -34.0478,-6.2857 -14.6667,-6.4167 -23.0477,-19.3811 -8.381,-12.9643 -8.381,-33.0002 0,-16.5 5.6309,-28.1549 5.631,-11.7858 15.7144,-19.2501 10.0834,-7.4643 23.4406,-11.3929 13.4882,-3.9286 29.0716,-5.1072 16.893,-1.3095 27.1073,-3.1429 10.3453,-1.9643 14.9287,-5.369 4.5833,-3.5358 4.5833,-9.2977 v -0.5238 q 0,-7.8572 -6.0238,-12.0477 -6.0239,-4.1905 -15.4525,-4.1905 -10.3453,0 -16.8929,4.5834 -6.4167,4.4524 -7.7263,13.75 h -66.5242 q 1.3096,-18.3334 11.6549,-33.7859 10.4762,-15.5834 30.512,-24.88107 20.0359,-9.42863 50.0241,-9.42863 21.6073,0 38.7622,5.10718 17.1548,4.97622 29.2025,14.01198 12.0477,8.90481 18.3335,20.95254 6.4167,11.9167 6.4167,25.9287 v 137.7627 h -67.5719 v -28.2859 h -1.5714 q -6.0238,11.262 -14.6667,18.2025 -8.512,6.9405 -19.5121,10.0834 -10.8691,3.1428 -23.9644,3.1428 z m 23.5716,-45.5716 q 8.25,0 15.4524,-3.4048 7.3334,-3.4048 11.9168,-9.8215 4.5833,-6.4167 4.5833,-15.5834 v -16.762 q -2.8809,1.1785 -6.1548,2.2262 -3.1428,1.0476 -6.8095,1.9643 -3.5358,0.9166 -7.5953,1.7024 -3.9286,0.7857 -8.25,1.4404 -8.381,1.3096 -13.7501,4.3215 -5.2382,2.881 -7.8572,7.2024 -2.4881,4.1905 -2.4881,9.4286 0,8.381 5.8929,12.8335 5.8929,4.4524 15.0596,4.4524 z m 240.4303,42.4288 H 1614.8955 V 906.45817 h 102.1434 q 41.3812,0 71.5004,16.10723 30.2502,15.97628 46.6194,46.0955 16.5,29.98827 16.5,71.8933 0,41.905 -16.3691,72.0242 -16.3691,29.9883 -46.3574,46.0955 -29.9883,15.9763 -70.8456,15.9763 z m -30.3812,-61.8099 h 27.7621 q 19.9049,0 33.9169,-6.4167 14.1429,-6.4167 21.4763,-22.1311 7.4643,-15.7144 7.4643,-43.7383 0,-28.024 -7.5953,-43.73838 -7.4643,-15.71437 -22.0001,-22.13108 -14.4049,-6.4167 -35.3574,-6.4167 h -25.6668 z"
       id="text1"
       transform="matrix(0.88415612,0,0,0.88415612,-663.40765,-606.40173)"
       aria-label="WaD" /></g></svg>
