<?xml version="1.0" encoding="UTF-8" standalone="no"?>
<!-- Created with Inkscape (http://www.inkscape.org/) -->

<svg
   width="1200"
   height="189.99995"
   viewBox="0 0 300 47.499989"
   version="1.1"
   id="svg1"
   inkscape:version="1.4.2 (ebf0e940d0, 2025-05-08)"
   sodipodi:docname="logo.svg"
   inkscape:export-filename="logo.png"
   inkscape:export-xdpi="24"
   inkscape:export-ydpi="24"
   xmlns:inkscape="http://www.inkscape.org/namespaces/inkscape"
   xmlns:sodipodi="http://sodipodi.sourceforge.net/DTD/sodipodi-0.dtd"
   xmlns="http://www.w3.org/2000/svg"
   xmlns:svg="http://www.w3.org/2000/svg">
  <sodipodi:namedview
     id="namedview1"
     pagecolor="#ffffff"
     bordercolor="#111111"
     borderopacity="1"
     inkscape:showpageshadow="0"
     inkscape:pageopacity="0"
     inkscape:pagecheckerboard="1"
     inkscape:deskcolor="#d1d1d1"
     inkscape:document-units="px"
     inkscape:zoom="0.96212121"
     inkscape:cx="528.51969"
     inkscape:cy="286.86614"
     inkscape:window-width="2536"
     inkscape:window-height="1348"
     inkscape:window-x="26"
     inkscape:window-y="23"
     inkscape:window-maximized="0"
     inkscape:current-layer="layer1" />
  <defs
     id="defs1" />
  <g
     inkscape:label="Layer 1"
     inkscape:groupmode="layer"
     id="layer1"
     transform="translate(34.793609,-72.470749)">
    <g
       id="g2"
       transform="matrix(0.9743603,0,0,0.94886549,-1.8663212,2.7568093)">
      <g
         id="g1"
         transform="translate(0.99999977,1)">
        <path
           style="font-weight:900;font-size:74.6667px;line-height:1.4em;font-family:Inter;-inkscape-font-specification:'Inter Heavy';white-space:pre;fill:#ffffff;stroke:#ffffff;stroke-width:7.23599"
           d="M 30.904346,118.29873 V 88.828547 h 10.283867 v 5.602399 h 0.306973 q 0.805826,-3.108176 2.55178,-4.547153 1.76514,-1.438978 4.12506,-1.438978 0.690709,0 1.362227,0.115098 0.690706,0.09596 1.323853,0.28779 v 9.036755 q -0.786638,-0.268607 -1.937818,-0.402888 -1.151178,-0.134326 -1.976189,-0.134326 -1.554088,0 -2.801201,0.709892 -1.227927,0.69071 -1.937821,1.957004 -0.709891,1.24711 -0.709891,2.93551 v 15.34906 z m 23.407331,0 V 88.828547 h 10.590845 v 29.470183 z m 5.295419,-32.539998 q -2.148864,0 -3.683773,-1.419785 -1.534902,-1.419785 -1.534902,-3.415164 0,-1.995383 1.534902,-3.415168 1.534909,-1.419785 3.683773,-1.419785 2.168059,0 3.683779,1.419785 1.534903,1.419785 1.534903,3.415168 0,1.995379 -1.534903,3.415164 -1.51572,1.419785 -3.683779,1.419785 z m 28.242241,3.069815 v 7.674524 H 68.432776 V 88.828547 Z M 72.193295,81.767984 h 10.590848 v 27.052706 q 0,0.61396 0.211058,1.03606 0.211058,0.40289 0.652339,0.61396 0.4413,0.19188 1.131992,0.19188 0.479654,0 1.112807,-0.1151 0.65233,-0.1151 0.959317,-0.19188 l 1.5349,7.44429 q -0.709892,0.21106 -2.033748,0.51803 -1.304671,0.30698 -3.108181,0.40289 -3.6454,0.19188 -6.120437,-0.74826 -2.475037,-0.95932 -3.722144,-3.01225 -1.247115,-2.05294 -1.208742,-5.14193 z m 33.767885,37.067966 q -4.71983,0 -8.135,-1.80351 -3.395975,-1.8227 -5.237864,-5.21868 -1.822699,-3.41517 -1.822699,-8.17338 0,-4.566342 1.841887,-7.98151 1.841884,-3.415159 5.199493,-5.314609 3.357603,-1.899446 7.923953,-1.899446 3.33842,0 6.04369,1.036063 2.70527,1.036061 4.6239,3.012252 1.91864,1.957009 2.95469,4.758208 1.03606,2.801202 1.03606,6.312292 v 2.45586 H 94.065666 v -5.83265 h 16.576974 q -0.0191,-1.266293 -0.65234,-2.225609 -0.61395,-0.9785 -1.6692,-1.515714 -1.03606,-0.556406 -2.35992,-0.556406 -1.28548,0 -2.35991,0.556406 -1.07444,0.537214 -1.72677,1.496531 -0.63315,0.959316 -0.67153,2.244792 v 6.29312 q 0,1.41979 0.59478,2.53259 0.59478,1.11281 1.70758,1.74596 1.11281,0.63315 2.68609,0.63315 1.09362,0 1.99538,-0.30698 0.92094,-0.30697 1.57327,-0.88257 0.65234,-0.59478 0.95932,-1.41979 h 9.6699 q -0.49884,3.06981 -2.35991,5.3338 -1.86108,2.2448 -4.93089,3.49191 -3.05062,1.22792 -7.13731,1.22792 z m 28.77946,-0.53722 h -11.5118 l 12.96995,-39.293584 h 14.5816 l 12.96996,39.293584 h -11.51179 l -8.59548,-28.472495 h -0.30697 z m -2.14887,-15.50254 h 21.64216 v 7.9815 h -21.64216 z m 50.03788,15.50254 H 167.51083 V 79.005146 h 14.96533 q 6.06288,0 10.47573,2.359923 4.43204,2.340731 6.83034,6.753586 2.41747,4.393663 2.41747,10.533285 0,6.13962 -2.39829,10.55248 -2.39829,4.39366 -6.79196,6.75358 -4.39367,2.34073 -10.3798,2.34073 z m -4.45122,-9.05594 h 4.0675 q 2.91631,0 4.96925,-0.94013 2.07213,-0.94013 3.14656,-3.24249 1.09362,-2.30235 1.09362,-6.40823 0,-4.105868 -1.1128,-6.408229 -1.09363,-2.302356 -3.22331,-3.242489 -2.11049,-0.94013 -5.18031,-0.94013 h -3.76051 z m 43.28431,9.59316 q -4.79656,0 -8.21176,-1.89945 -3.41516,-1.91863 -5.23786,-5.33379 -1.82269,-3.43435 -1.82269,-7.96233 0,-4.527972 1.82269,-7.94313 1.8227,-3.434356 5.23786,-5.333802 3.4152,-1.918633 8.21176,-1.918633 4.79656,0 8.21177,1.918633 3.41515,1.899446 5.23785,5.333802 1.8227,3.415158 1.8227,7.94313 0,4.52798 -1.8227,7.96233 -1.8227,3.41516 -5.23785,5.33379 -3.41521,1.89945 -8.21177,1.89945 z m 0.0768,-7.82802 q 1.34303,0 2.32154,-0.90176 0.97851,-0.90175 1.51573,-2.57097 0.53721,-1.66921 0.53721,-3.97157 0,-2.32153 -0.53721,-3.971561 -0.53722,-1.669214 -1.51573,-2.570967 -0.97851,-0.901754 -2.32154,-0.901754 -1.41977,0 -2.43665,0.901754 -1.01688,0.901753 -1.55409,2.570967 -0.53722,1.650031 -0.53722,3.971561 0,2.30236 0.53722,3.97157 0.53721,1.66922 1.55409,2.57097 1.01688,0.90176 2.43665,0.90176 z m 33.69119,7.82802 q -4.7966,0 -8.21177,-1.89945 -3.41517,-1.91863 -5.23786,-5.33379 -1.8227,-3.43435 -1.8227,-7.96233 0,-4.527972 1.8227,-7.94313 1.82269,-3.434356 5.23786,-5.333802 3.41517,-1.918633 8.21177,-1.918633 4.33608,0 7.50186,1.573285 3.18491,1.554085 4.93089,4.412846 1.74592,2.83958 1.7651,6.676844 h -9.82336 q -0.21093,-2.321542 -1.34308,-3.530282 -1.1128,-1.227929 -2.87793,-1.227929 -1.38141,0 -2.41748,0.805831 -1.03607,0.786638 -1.61163,2.398284 -0.57558,1.592466 -0.57558,4.009936 0,2.41748 0.57558,4.02914 0.57556,1.59246 1.61163,2.39829 1.03607,0.78663 2.41748,0.78663 1.17038,0 2.07211,-0.53721 0.90178,-0.55641 1.45818,-1.61165 0.57559,-1.07443 0.69072,-2.60934 h 9.82336 q -0.0577,3.89482 -1.78429,6.79195 -1.72679,2.87796 -4.89251,4.45123 -3.14656,1.57328 -7.52105,1.57328 z"
           id="text6"
           aria-label="riteADoc" />
        <path
           style="font-weight:900;font-size:74.6667px;line-height:1.4em;font-family:Inter;-inkscape-font-specification:'Inter Heavy';white-space:pre;fill:#ffffff;stroke:#ffffff;stroke-width:7.23599"
           d="M -18.366131,118.91261 -29.954665,79.619023 h 11.895518 l 5.372172,24.174767 h 0.306972 l 6.3698538,-24.174767 h 9.3629234 l 6.369865,24.251507 H 10.029612 L 15.401784,79.619023 H 27.2973 L 15.708765,118.91261 H 5.5016391 L -1.1752013,96.963457 H -1.4821737 L -8.159014,118.91261 Z"
           id="text8"
           aria-label="W" />
        <path
           style="font-weight:900;font-size:74.6667px;line-height:1.4em;font-family:Inter;-inkscape-font-specification:'Inter Heavy';white-space:pre;fill:#1a1a1a;fill-opacity:1;stroke:#1a1a1a;stroke-width:0.723599;stroke-opacity:1"
           d="M 31.266145,117.93693 V 88.466748 h 10.283866 v 5.602399 h 0.306973 q 0.805826,-3.108181 2.551781,-4.547153 1.765142,-1.438977 4.125059,-1.438977 0.690712,0 1.362227,0.115097 0.690706,0.09591 1.323853,0.28779 v 9.036755 q -0.786638,-0.268607 -1.937815,-0.402888 -1.151178,-0.134326 -1.976192,-0.134326 -1.554088,0 -2.8012,0.709892 -1.227928,0.69071 -1.937819,1.957008 -0.709894,1.247105 -0.709894,2.935505 v 15.34906 z m 23.40733,0 V 88.466748 h 10.590848 v 29.470182 z m 5.295419,-32.539997 q -2.148864,0 -3.683773,-1.419785 -1.534902,-1.419785 -1.534902,-3.415168 0,-1.995379 1.534902,-3.415164 1.534909,-1.419785 3.683773,-1.419785 2.168059,0 3.683782,1.419785 1.5349,1.419785 1.5349,3.415164 0,1.995383 -1.5349,3.415168 -1.515723,1.419785 -3.683782,1.419785 z m 28.242241,3.069815 v 7.674524 H 68.794574 V 88.466748 Z M 72.555094,81.40618 h 10.590847 v 27.05271 q 0,0.61396 0.211058,1.03606 0.211061,0.40289 0.652342,0.61396 0.441297,0.19188 1.131989,0.19188 0.479657,0 1.112807,-0.1151 0.65233,-0.1151 0.959317,-0.19188 l 1.534903,7.44429 q -0.709895,0.21106 -2.033751,0.51803 -1.304668,0.30698 -3.108181,0.40294 -3.6454,0.19187 -6.120434,-0.74827 -2.47504,-0.95932 -3.722147,-3.01225 -1.247115,-2.05294 -1.208739,-5.14193 z m 33.767886,37.06796 q -4.71983,0 -8.134999,-1.8035 -3.395978,-1.8227 -5.237864,-5.21869 -1.822701,-3.41516 -1.822701,-8.17337 0,-4.566345 1.841886,-7.981509 1.841884,-3.415159 5.199494,-5.314609 3.357604,-1.899445 7.923954,-1.899445 3.33842,0 6.04369,1.036062 2.70526,1.036061 4.6239,3.012253 1.91863,1.957003 2.95469,4.758202 1.03606,2.801209 1.03606,6.312306 v 2.45585 H 94.427464 v -5.832648 h 16.576976 q -0.0191,-1.266294 -0.65234,-2.22561 -0.61395,-0.978504 -1.6692,-1.515714 -1.03606,-0.556406 -2.35992,-0.556406 -1.28549,0 -2.35991,0.556406 -1.07444,0.53721 -1.72678,1.496531 -0.63314,0.959316 -0.67152,2.244793 v 6.293118 q 0,1.41978 0.59478,2.53259 0.59478,1.11281 1.70758,1.74596 1.11281,0.63315 2.68609,0.63315 1.09362,0 1.99537,-0.30697 0.92095,-0.30698 1.57328,-0.88258 0.65234,-0.59477 0.95932,-1.41978 h 9.6699 q -0.49884,3.06981 -2.35992,5.33379 -1.86106,2.2448 -4.93088,3.49191 -3.05062,1.22793 -7.13731,1.22793 z m 28.77945,-0.53721 h -11.51179 l 12.96995,-39.293583 h 14.5816 l 12.96995,39.293583 h -11.51178 l -8.59548,-28.472494 h -0.30698 z m -2.14886,-15.50254 h 21.64216 v 7.9815 h -21.64216 z m 50.03788,15.50254 H 167.87263 V 78.643347 h 14.96533 q 6.06288,0 10.47573,2.359923 4.43204,2.340731 6.83033,6.753586 2.41748,4.393663 2.41748,10.533285 0,6.139619 -2.39829,10.552469 -2.39829,4.39367 -6.79196,6.75359 -4.39367,2.34073 -10.3798,2.34073 z m -4.45122,-9.05594 h 4.0675 q 2.91631,0 4.96925,-0.94013 2.07213,-0.94012 3.14656,-3.24249 1.09362,-2.30236 1.09362,-6.408229 0,-4.105868 -1.11281,-6.408229 -1.09362,-2.302356 -3.2233,-3.242494 -2.11049,-0.940125 -5.18031,-0.940125 h -3.76051 z m 43.28431,9.59315 q -4.79656,0 -8.21172,-1.89944 -3.41521,-1.91862 -5.23791,-5.33379 -1.82268,-3.43436 -1.82268,-7.96233 0,-4.52797 1.82268,-7.943129 1.8227,-3.434356 5.23791,-5.333801 3.41516,-1.918633 8.21172,-1.918633 4.7966,0 8.21176,1.918633 3.41516,1.899445 5.23786,5.333801 1.8227,3.415159 1.8227,7.943129 0,4.52797 -1.8227,7.96233 -1.8227,3.41517 -5.23786,5.33379 -3.41516,1.89944 -8.21176,1.89944 z m 0.0768,-7.82801 q 1.34308,0 2.32155,-0.90176 0.97851,-0.90176 1.51572,-2.57097 0.53722,-1.6692 0.53722,-3.97156 0,-2.32154 -0.53722,-3.971574 -0.53721,-1.669209 -1.51572,-2.570963 -0.97847,-0.901754 -2.32155,-0.901754 -1.41977,0 -2.43665,0.901754 -1.01688,0.901754 -1.55409,2.570963 -0.53722,1.650034 -0.53722,3.971574 0,2.30236 0.53722,3.97156 0.53721,1.66921 1.55409,2.57097 1.01688,0.90176 2.43665,0.90176 z m 33.69118,7.82801 q -4.79659,0 -8.21173,-1.89944 -3.41517,-1.91862 -5.23787,-5.33379 -1.8227,-3.43436 -1.8227,-7.96233 0,-4.52797 1.8227,-7.943129 1.8227,-3.434356 5.23787,-5.333801 3.41514,-1.918633 8.21173,-1.918633 4.33609,0 7.50187,1.57328 3.18494,1.554089 4.93088,4.41285 1.74595,2.83958 1.76516,6.676843 h -9.82339 q -0.21093,-2.321541 -1.34305,-3.530286 -1.11283,-1.227923 -2.87793,-1.227923 -1.38146,0 -2.41753,0.80583 -1.03605,0.786638 -1.61163,2.398284 -0.57559,1.592465 -0.57559,4.009945 0,2.41747 0.57559,4.02913 0.57558,1.59246 1.61163,2.39828 1.03607,0.78664 2.41753,0.78664 1.17033,0 2.07205,-0.53721 0.90179,-0.55641 1.45819,-1.61165 0.57558,-1.07443 0.69074,-2.60934 h 9.82339 q -0.0577,3.89482 -1.78432,6.79195 -1.72678,2.87795 -4.89254,4.45123 -3.14653,1.57327 -7.52105,1.57327 z"
           id="text1"
           aria-label="riteADoc" />
        <path
           style="font-weight:900;font-size:74.6667px;line-height:1.4em;font-family:Inter;-inkscape-font-specification:'Inter Heavy';white-space:pre;fill:#4995f7;stroke:#4995f7;stroke-width:2.17079"
           d="M -18.00433,118.55081 -29.592866,79.257225 h 11.895517 l 5.372172,24.174765 h 0.306972 L -5.6483511,79.257225 H 3.7145724 L 10.084437,103.50874 H 10.39141 L 15.763582,79.257225 H 27.659098 L 16.070563,118.55081 H 5.8634401 L -0.81340314,96.601658 H -1.1203756 l -6.6768346,21.949152 z"
           id="text4-7"
           aria-label="W" />
      </g>
    </g>
  </g>
</svg>
